<?xml version="1.0" standalone="no"?>
<!DOCTYPE svg PUBLIC "-//W3C//DTD SVG 20010904//EN"
 "http://www.w3.org/TR/2001/REC-SVG-20010904/DTD/svg10.dtd">
<svg version="1.0" xmlns="http://www.w3.org/2000/svg"
 width="1024.000000pt" height="1024.000000pt" viewBox="0 0 1024.000000 1024.000000"
 preserveAspectRatio="xMidYMid meet" class="logo">

<g transform="translate(0.000000,1024.000000) scale(0.100000,-0.100000)"
fill="currentColor" stroke="none">
<path d="M4820 9769 c-467 -50 -848 -158 -1255 -353 -251 -120 -511 -285 -745
-470 -142 -112 -438 -405 -551 -546 -433 -536 -697 -1157 -781 -1834 -5 -45
-12 -164 -15 -266 -7 -266 16 -352 122 -449 92 -85 230 -124 357 -103 133 23
235 97 294 214 26 50 28 64 35 244 13 318 50 523 146 814 35 106 107 277 151
360 72 134 102 184 164 279 283 426 696 785 1163 1012 333 162 703 259 1060
281 83 4 186 11 229 14 47 3 88 1 100 -5 12 -6 71 -12 131 -14 515 -20 1108
-257 1580 -633 409 -325 742 -789 920 -1279 55 -151 117 -390 135 -520 6 -49
16 -115 20 -145 20 -128 22 -315 6 -490 -21 -221 -30 -276 -67 -430 -131 -534
-379 -978 -772 -1378 -358 -366 -788 -631 -1279 -790 -168 -55 -484 -129 -496
-117 -4 4 -7 111 -6 238 0 254 10 323 64 442 65 143 150 222 468 432 295 194
370 251 503 380 434 422 646 946 618 1523 -14 279 -81 523 -215 778 -99 189
-187 308 -352 475 -286 291 -638 475 -1047 549 -96 17 -160 22 -315 22 -309 1
-524 -42 -782 -155 -224 -98 -382 -205 -566 -384 -322 -311 -501 -664 -572
-1123 -31 -198 -24 -285 29 -396 67 -137 253 -223 425 -196 97 15 166 49 231
114 71 71 90 116 121 295 55 316 169 541 373 732 155 145 325 238 511 277 74
16 126 20 235 18 164 -3 256 -21 400 -77 139 -54 254 -127 362 -232 139 -135
229 -276 294 -464 47 -135 53 -176 52 -343 -1 -131 -5 -170 -27 -253 -52 -202
-160 -383 -325 -548 -92 -91 -142 -129 -386 -291 -326 -217 -411 -284 -535
-416 -178 -190 -285 -394 -334 -633 -40 -197 -48 -338 -42 -739 8 -548 15
-642 49 -713 30 -61 79 -106 149 -137 85 -37 131 -42 312 -29 266 18 269 18
311 24 22 4 58 9 80 11 22 2 56 7 75 10 19 4 46 8 58 10 77 10 301 60 417 94
828 242 1486 694 2040 1401 62 80 200 285 269 404 253 429 414 916 478 1445
17 141 17 655 0 780 -58 422 -137 714 -287 1055 -185 421 -470 834 -792 1145
-508 492 -1102 826 -1754 984 -161 39 -402 80 -558 96 -119 12 -570 11 -681
-1z"/>
<path d="M5071 1565 c-236 -53 -416 -237 -466 -473 -19 -92 -19 -140 0 -239
42 -220 222 -410 441 -467 313 -81 646 120 730 439 33 129 9 312 -59 439 -66
123 -203 235 -352 286 -77 27 -213 33 -294 15z"/>
</g>
</svg>
